<svg xmlns="http://www.w3.org/2000/svg" viewBox="286 193 491 570" preserveAspectRatio="xMidYMid meet">
  <g transform="translate(0 1024) scale(0.1 -0.1)" fill="currentColor" stroke="none">
    <path
      d="M6401 8299 c-115 -22 -238 -110 -300 -213 -73 -121 -71 -96 -71 -993
0 -442 -2 -803 -4 -803 -3 0 -42 23 -88 52 -381 237 -867 353 -1286 307 -296
-32 -592 -133 -849 -290 -259 -158 -508 -408 -667 -671 -425 -700 -353 -1625
177 -2283 83 -102 249 -263 355 -344 309 -234 680 -378 1087 -422 131 -14 368
-6 505 16 346 57 675 201 955 420 90 71 268 250 336 340 157 206 287 478 353
742 65 258 60 105 64 2003 2 1530 1 1733 -13 1795 -54 245 -296 395 -554 344z
m-1247 -2598 c407 -108 708 -417 792 -815 107 -509 -190 -1031 -686 -1204
-225 -79 -455 -89 -680 -32 -358 92 -641 367 -744 725 -176 608 195 1224 807
1341 110 21 408 12 511 -15z"
    />
    <path
      d="M7164 3585 c-321 -70 -487 -426 -333 -716 38 -71 136 -167 207 -203
144 -73 329 -74 472 -1 66 33 170 132 203 193 133 244 27 568 -224 687 -117
55 -206 66 -325 40z"
    />
  </g>
</svg>
